inDegrees=no
DataType=double
version=3
OpenSimVersion=4.4-2022-10-11-798caa840
endheader
time	elv_angle	shoulder_elv	shoulder_rot	elbow_flexion	pro_sup	deviation	flexion
2.4020851434	0.5855504870	0.6806784272	0.7351083755	1.5518389940	0.0000000000	0.0000000000	0.0000000000
2.4062554301	0.5855504870	0.6806784272	0.7351083755	1.5518389940	0.0000000000	0.0000000000	0.0000000000
2.4104257168	0.5855504870	0.6806784272	0.7351083755	1.5518389940	0.0000000000	0.0000000000	0.0000000000
2.4145960035	0.5855504870	0.6806784272	0.7351083755	1.5518389940	0.0000000000	0.0000000000	0.0000000000
2.4187662902	0.5855504870	0.6806784272	0.7351083755	1.5518389940	0.0000000000	0.0000000000	0.0000000000
2.4229365769	0.5855504870	0.6806784272	0.7351083755	1.5518389940	0.0000000000	0.0000000000	0.0000000000
2.4271068636	0.5855504870	0.6806784272	0.7351083755	1.5518389940	0.0000000000	0.0000000000	0.0000000000
2.4312771503	0.5855504870	0.6806784272	0.7351083755	1.5518389940	0.0000000000	0.0000000000	0.0000000000
2.4354474370	0.5855504870	0.6806784272	0.7351083755	1.5518389940	0.0000000000	0.0000000000	0.0000000000
2.4396177237	0.5855504870	0.6806784272	0.7351083755	1.5518389940	0.0000000000	0.0000000000	0.0000000000
2.4437880104	0.5855504870	0.6806784272	0.7351083755	1.5518389940	0.0000000000	0.0000000000	0.0000000000
2.4479582971	0.5855504870	0.6806784272	0.7351083755	1.5518389940	0.0000000000	0.0000000000	0.0000000000
2.4521285838	0.5855504870	0.6806784272	0.7351083755	1.5518389940	0.0000000000	0.0000000000	0.0000000000
2.4562988705	0.5855504870	0.6806784272	0.7351083755	1.5518389940	0.0000000000	0.0000000000	0.0000000000
2.4604691573	0.5855504870	0.6806784272	0.7351083755	1.5518389940	0.0000000000	0.0000000000	0.0000000000
2.4646394440	0.5855504870	0.6806784272	0.7351083755	1.5518389940	0.0000000000	0.0000000000	0.0000000000
2.4688097307	0.5855504870	0.6806784272	0.7351083755	1.5518389940	0.0000000000	0.0000000000	0.0000000000
2.4729800174	0.5855504870	0.6806784272	0.7351083755	1.5518389940	0.0000000000	0.0000000000	0.0000000000
2.4771503041	0.5855504870	0.6806784272	0.7351083755	1.5518389940	0.0000000000	0.0000000000	0.0000000000
2.4813205908	0.5855504870	0.6806784272	0.7351083755	1.5518389940	0.0000000000	0.0000000000	0.0000000000
2.4854908775	0.5855504870	0.6806784272	0.7351083755	1.5518389940	0.0000000000	0.0000000000	0.0000000000
2.4896611642	0.5855504870	0.6806784272	0.7351083755	1.5518389940	0.0000000000	0.0000000000	0.0000000000
2.4938314509	0.5855504870	0.6806784272	0.7351083755	1.5518389940	0.0000000000	0.0000000000	0.0000000000
2.4980017376	0.5855504870	0.6806784272	0.7351083755	1.5518389940	0.0000000000	0.0000000000	0.0000000000
2.5021720243	0.5855504870	0.6806784272	0.7351083755	1.5518389940	0.0000000000	0.0000000000	0.0000000000
2.5063423110	0.5855504870	0.6806784272	0.7351083755	1.5518389940	0.0000000000	0.0000000000	0.0000000000
2.5105125977	0.5855504870	0.6806784272	0.7351083755	1.5518389940	0.0000000000	0.0000000000	0.0000000000
2.5146828844	0.5855504870	0.6806784272	0.7351083755	1.5518389940	0.0000000000	0.0000000000	0.0000000000
2.5188531712	0.5855504870	0.6806784272	0.7351083755	1.5518389940	0.0000000000	0.0000000000	0.0000000000
2.5230234579	0.5855504870	0.6806784272	0.7351083755	1.5518389940	0.0000000000	0.0000000000	0.0000000000
2.5271937446	0.5855504870	0.6806784272	0.7351083755	1.5518389940	0.0000000000	0.0000000000	0.0000000000
2.5313640313	0.5855504870	0.6806784272	0.7351083755	1.5518389940	0.0000000000	0.0000000000	0.0000000000
2.5355343180	0.5855504870	0.6806784272	0.7351083755	1.5518389940	0.0000000000	0.0000000000	0.0000000000
2.5397046047	0.5855504870	0.6806784272	0.7351083755	1.5518389940	0.0000000000	0.0000000000	0.0000000000
2.5438748914	0.5855504870	0.6806784272	0.7351083755	1.5518389940	0.0000000000	0.0000000000	0.0000000000
2.5480451781	0.5855504870	0.6806784272	0.7351083755	1.5518389940	0.0000000000	0.0000000000	0.0000000000
2.5522154648	0.5855504870	0.6806784272	0.7351083755	1.5518389940	0.0000000000	0.0000000000	0.0000000000
2.5563857515	0.5855504870	0.6806784272	0.7351083755	1.5518389940	0.0000000000	0.0000000000	0.0000000000
2.5605560382	0.5855504870	0.6806784272	0.7351083755	1.5518389940	0.0000000000	0.0000000000	0.0000000000
2.5647263249	0.5855504870	0.6806784272	0.7351083755	1.5518389940	0.0000000000	0.0000000000	0.0000000000
2.5688966116	0.5855504870	0.6806784272	0.7351083755	1.5518389940	0.0000000000	0.0000000000	0.0000000000
2.5730668983	0.5855504870	0.6806784272	0.7351083755	1.5518389940	0.0000000000	0.0000000000	0.0000000000
2.5772371851	0.5855504870	0.6806784272	0.7351083755	1.5518389940	0.0000000000	0.0000000000	0.0000000000
2.5814074718	0.5855504870	0.6806784272	0.7351083755	1.5518389940	0.0000000000	0.0000000000	0.0000000000
2.5855777585	0.5855504870	0.6806784272	0.7351083755	1.5518389940	0.0000000000	0.0000000000	0.0000000000
2.5897480452	0.5855504870	0.6806784272	0.7351083755	1.5518389940	0.0000000000	0.0000000000	0.0000000000
2.5939183319	0.5855504870	0.6806784272	0.7351083755	1.5518389940	0.0000000000	0.0000000000	0.0000000000
2.5980886186	0.5855504870	0.6806784272	0.7351083755	1.5518389940	0.0000000000	0.0000000000	0.0000000000
2.6022589053	0.5855504870	0.6806784272	0.7351083755	1.5518389940	0.0000000000	0.0000000000	0.0000000000
2.6064291920	0.5855504870	0.6806784272	0.7351083755	1.5518389940	0.0000000000	0.0000000000	0.0000000000
2.6105994787	0.5855504870	0.6806784272	0.7351083755	1.5518389940	0.0000000000	0.0000000000	0.0000000000
2.6147697654	0.5855504870	0.6806784272	0.7351083755	1.5518389940	0.0000000000	0.0000000000	0.0000000000
2.6189400521	0.5855504870	0.6806784272	0.7351083755	1.5518389940	0.0000000000	0.0000000000	0.0000000000
2.6231103388	0.5855504870	0.6806784272	0.7351083755	1.5518389940	0.0000000000	0.0000000000	0.0000000000
2.6272806255	0.5855504870	0.6806784272	0.7351083755	1.5518389940	0.0000000000	0.0000000000	0.0000000000
2.6314509123	0.5855504870	0.6806784272	0.7351083755	1.5518389940	0.0000000000	0.0000000000	0.0000000000
2.6356211990	0.5855504870	0.6806784272	0.7351083755	1.5518389940	0.0000000000	0.0000000000	0.0000000000
2.6397914857	0.5855504870	0.6806784272	0.7351083755	1.5518389940	0.0000000000	0.0000000000	0.0000000000
2.6439617724	0.5855504870	0.6806784272	0.7351083755	1.5518389940	0.0000000000	0.0000000000	0.0000000000
2.6481320591	0.5855504870	0.6806784272	0.7351083755	1.5518389940	0.0000000000	0.0000000000	0.0000000000
2.6523023458	0.5855504870	0.6806784272	0.7351083755	1.5518389940	0.0000000000	0.0000000000	0.0000000000
2.6564726325	0.5855488777	0.6806793809	0.7351078987	1.5518388748	0.0000000000	0.0000000000	0.0000000000
2.6606429192	0.5855382681	0.6806865335	0.7351045012	1.5518385172	0.0000000000	0.0000000000	0.0000000000
2.6648132059	0.5855095983	0.6807054281	0.7350956202	1.5518373251	0.0000000000	0.0000000000	0.0000000000
2.6689834926	0.5854548216	0.6807416677	0.7350785732	1.5518351793	0.0000000000	0.0000000000	0.0000000000
2.6731537793	0.5853659511	0.6808003783	0.7350509763	1.5518317223	0.0000000000	0.0000000000	0.0000000000
2.6773240660	0.5852356553	0.6808864474	0.7350105047	1.5518265963	0.0000000000	0.0000000000	0.0000000000
2.6814943527	0.5850569606	0.6810045838	0.7349550128	1.5518195629	0.0000000000	0.0000000000	0.0000000000
2.6856646394	0.5848233700	0.6811590195	0.7348824739	1.5518103838	0.0000000000	0.0000000000	0.0000000000
2.6898349262	0.5845289826	0.6813538671	0.7347909808	1.5517987013	0.0000000000	0.0000000000	0.0000000000
2.6940052129	0.5841680169	0.6815927625	0.7346788645	1.5517842770	0.0000000000	0.0000000000	0.0000000000
2.6981754996	0.5837355852	0.6818793416	0.7345443368	1.5517665148	0.0000000000	0.0000000000	0.0000000000
2.7023457863	0.5832270384	0.6822167635	0.7343860865	1.5517455339	0.0000000000	0.0000000000	0.0000000000
2.7065160730	0.5826378465	0.6826081872	0.7342026234	1.5517205000	0.0000000000	0.0000000000	0.0000000000
2.7106863597	0.5819646120	0.6830562949	0.7339928150	1.5516911745	0.0000000000	0.0000000000	0.0000000000
2.7148566464	0.5812038183	0.6835635900	0.7337555289	1.5516570807	0.0000000000	0.0000000000	0.0000000000
2.7190269331	0.5803525448	0.6841323376	0.7334898114	1.5516178608	0.0000000000	0.0000000000	0.0000000000
2.7231972198	0.5794085264	0.6847646832	0.7331946492	1.5515727997	0.0000000000	0.0000000000	0.0000000000
2.7273675065	0.5783695579	0.6854622960	0.7328695059	1.5515214205	0.0000000000	0.0000000000	0.0000000000
2.7315377932	0.5772340894	0.6862269044	0.7325134873	1.5514630079	0.0000000000	0.0000000000	0.0000000000
2.7357080799	0.5760010481	0.6870598197	0.7321261764	1.5513969660	0.0000000000	0.0000000000	0.0000000000
2.7398783666	0.5746695399	0.6879622340	0.7317071557	1.5513224602	0.0000000000	0.0000000000	0.0000000000
2.7440486533	0.5732392669	0.6889350414	0.7312560678	1.5512388945	0.0000000000	0.0000000000	0.0000000000
2.7482189401	0.5717102289	0.6899790764	0.7307727337	1.5511450768	0.0000000000	0.0000000000	0.0000000000
2.7523892268	0.5700827837	0.6910948753	0.7302570939	1.5510405302	0.0000000000	0.0000000000	0.0000000000
2.7565595135	0.5683577061	0.6922827959	0.7297089100	1.5509241819	0.0000000000	0.0000000000	0.0000000000
2.7607298002	0.5665361285	0.6935428977	0.7291284800	1.5507950783	0.0000000000	0.0000000000	0.0000000000
2.7649000869	0.5646193624	0.6948752403	0.7285158038	1.5506520271	0.0000000000	0.0000000000	0.0000000000
2.7690703736	0.5626093745	0.6962795258	0.7278712988	1.5504941940	0.0000000000	0.0000000000	0.0000000000
2.7732406603	0.5605080724	0.6977554560	0.7271951437	1.5503205061	0.0000000000	0.0000000000	0.0000000000
2.7774109470	0.5583178401	0.6993024349	0.7264878154	1.5501296520	0.0000000000	0.0000000000	0.0000000000
2.7815812337	0.5560413599	0.7009195685	0.7257497907	1.5499206781	0.0000000000	0.0000000000	0.0000000000
2.7857515204	0.5536813736	0.7026060820	0.7249816060	1.5496923923	0.0000000000	0.0000000000	0.0000000000
2.7899218071	0.5512410998	0.7043607235	0.7241838574	1.5494437218	0.0000000000	0.0000000000	0.0000000000
2.7940920938	0.5487238169	0.7061823606	0.7233573198	1.5491734743	0.0000000000	0.0000000000	0.0000000000
2.7982623805	0.5461330414	0.7080695033	0.7225025892	1.5488803387	0.0000000000	0.0000000000	0.0000000000
2.8024326672	0.5434724689	0.7100206017	0.7216207385	1.5485633612	0.0000000000	0.0000000000	0.0000000000
2.8066029540	0.5407459736	0.7120339274	0.7207124233	1.5482213497	0.0000000000	0.0000000000	0.0000000000
2.8107732407	0.5379576087	0.7141075730	0.7197787166	1.5478532314	0.0000000000	0.0000000000	0.0000000000
2.8149435274	0.5351113677	0.7162395716	0.7188204527	1.5474579334	0.0000000000	0.0000000000	0.0000000000
2.8191138141	0.5322116017	0.7184277773	0.7178388238	1.5470343828	0.0000000000	0.0000000000	0.0000000000
2.8232841008	0.5292625427	0.7206699848	0.7168347239	1.5465817451	0.0000000000	0.0000000000	0.0000000000
2.8274543875	0.5262686014	0.7229636312	0.7158093452	1.5460990667	0.0000000000	0.0000000000	0.0000000000
2.8316246742	0.5232342482	0.7253063321	0.7147638798	1.5455855131	0.0000000000	0.0000000000	0.0000000000
2.8357949609	0.5201638937	0.7276954651	0.7136993408	1.5450402498	0.0000000000	0.0000000000	0.0000000000
2.8399652476	0.5170620680	0.7301282287	0.7126171589	1.5444625616	0.0000000000	0.0000000000	0.0000000000
2.8441355343	0.5139331818	0.7326019406	0.7115184069	1.5438519716	0.0000000000	0.0000000000	0.0000000000
2.8483058210	0.5107818246	0.7351136208	0.7104044557	1.5432076454	0.0000000000	0.0000000000	0.0000000000
2.8524761077	0.5076124072	0.7376603484	0.7092765570	1.5425297022	0.0000000000	0.0000000000	0.0000000000
2.8566463944	0.5044293404	0.7402389646	0.7081360221	1.5418174267	0.0000000000	0.0000000000	0.0000000000
2.8608166811	0.5012369752	0.7428464293	0.7069841623	1.5410706997	0.0000000000	0.0000000000	0.0000000000
2.8649869679	0.4980396628	0.7454796433	0.7058224678	1.5402894020	0.0000000000	0.0000000000	0.0000000000
2.8691572546	0.4948416352	0.7481353283	0.7046521306	1.5394736528	0.0000000000	0.0000000000	0.0000000000
2.8733275413	0.4916469753	0.7508102059	0.7034745216	1.5386235714	0.0000000000	0.0000000000	0.0000000000
2.8774978280	0.4884597957	0.7535010576	0.7022911906	1.5377395153	0.0000000000	0.0000000000	0.0000000000
